<?xml version="1.0" encoding="UTF-8" standalone="no"?>
<svg
   width="474.73438pt"
   height="244.38281pt"
   viewBox="0 0 474.73435 244.38281"
   version="1.1"
   id="svg84"
   sodipodi:docname="Qdevlogotxtright.svg"
   inkscape:export-filename="Qdevlogotxtright.pdf"
   inkscape:export-xdpi="96"
   inkscape:export-ydpi="96"
   inkscape:version="1.2.2 (732a01da63, 2022-12-09)"
   xmlns:inkscape="http://www.inkscape.org/namespaces/inkscape"
   xmlns:sodipodi="http://sodipodi.sourceforge.net/DTD/sodipodi-0.dtd"
   xmlns="http://www.w3.org/2000/svg"
   xmlns:svg="http://www.w3.org/2000/svg">
  <defs
     id="defs88" />
  <sodipodi:namedview
     id="namedview86"
     pagecolor="#ffffff"
     bordercolor="#000000"
     borderopacity="0.25"
     inkscape:showpageshadow="2"
     inkscape:pageopacity="0.0"
     inkscape:pagecheckerboard="0"
     inkscape:deskcolor="#d1d1d1"
     inkscape:document-units="pt"
     showgrid="false"
     inkscape:zoom="0.91490573"
     inkscape:cx="124.603"
     inkscape:cy="453.59864"
     inkscape:window-width="3840"
     inkscape:window-height="2066"
     inkscape:window-x="-11"
     inkscape:window-y="-11"
     inkscape:window-maximized="1"
     inkscape:current-layer="svg84" />
  <path
     fill-rule="nonzero"
     fill="#f9a124"
     fill-opacity="1"
     d="m 97.511721,55.992189 h 27.601559 c -2.02344,-8.85938 -7.78125,-12.5625 -18.82422,-12.5625 H 66.015621 c -14.23046,0 -19.98046,6.14844 -19.98046,21.55469 v 89.925781 c 0,15.40625 5.75,21.55078 19.98046,21.55078 h 2.1211 v -26.47266 c 0,-3.70312 1.21875,-4.92969 4.84375,-4.92969 h 4.55078 V 77.550779 c 0,-15.40625 5.75,-21.55859 19.98047,-21.55859"
     id="path2" />
  <path
     fill-rule="nonzero"
     fill="#ffa100"
     fill-opacity="1"
     d="m 71.847651,226.89063 -3.71093,-6.9961 h -8.78125 c -3.5,0 -6.85547,-0.18359 -10.07422,-0.54687 6.57812,5.57812 14.875,9.47265 24.73047,11.5 -0.66407,-1.17578 -1.22266,-1.75 -2.16407,-3.95703"
     id="path4" />
  <path
     fill-rule="nonzero"
     fill="#f9a124"
     fill-opacity="1"
     d="m 103.875,157.63672 v 18.82422 h 2.11328 c 13.36719,0 19.25391,-5.42188 19.92187,-18.83594 h -21.43359 c -0.20703,0 -0.41016,0 -0.60156,0.0117"
     id="path6" />
  <path
     fill-rule="nonzero"
     fill="#f9a124"
     fill-opacity="1"
     d="M 154.21484,13.113282 C 165.76562,22.906249 172,37.871099 172,56.984379 V 162.91797 c 0,35.71875 -21.79688,56.97656 -59.35156,56.97656 H 103.875 l 3.71094,6.9961 c 0,3.69531 -6.78125,4.92968 -10.421879,4.92968 h -17.18359 c 3.45703,0.42188 7.08203,0.64063 10.87109,0.64063 h 8.78125 l 3.710939,6.99609 c 1.65625,4.20703 2.16406,4.92578 6.69922,4.92578 h 18.61718 c 3.64063,0 10.41797,-1.23047 10.41797,-4.92578 l -3.70703,-6.99609 h 8.77344 c 37.55469,0 59.35156,-21.25781 59.35156,-56.97656 V 69.546879 c 0,-32.39844 -17.92969,-52.898441 -49.28125,-56.433597"
     id="path8" />
  <path
     fill-rule="nonzero"
     fill="#f9a124"
     fill-opacity="1"
     d="m 125.97656,154.91016 c 0,0.9375 -0.0234,1.84375 -0.0664,2.71484 h 4.60547 c 3.64063,0 4.85547,1.22656 4.85547,4.92969 v 26.47265 h 2.11328 c 14.23438,0 19.98438,-6.14453 19.98438,-21.55078 V 77.550779 c 0,-15.40625 -5.45313,-21.55859 -19.6836,-21.55859 h -12.67188 c 0.58594,2.55859 0.86328,5.54297 0.86328,8.99219 z m 0,0"
     id="path10" />
  <path
     fill-rule="nonzero"
     fill="#f9a124"
     fill-opacity="1"
     d="M 31.496094,175.48438 V 69.546879 c 0,-35.72266 21.796877,-56.980472 59.351557,-56.980472 h 53.296879 c 3.49219,0 6.85156,0.183593 10.07031,0.546875 C 144.17578,4.597657 130.11328,0 112.64844,0 H 59.355471 C 21.796875,0 0,21.257809 0,56.984379 V 162.91797 C 0,195.3125 17.925781,215.8125 49.281251,219.34766 37.734375,209.55859 31.496094,194.58594 31.496094,175.48438"
     id="path12" />
  <path
     fill-rule="nonzero"
     fill="#f9a124"
     fill-opacity="1"
     d="m 99.632811,189.02734 v -26.47265 c 0,-3.48828 1.082029,-4.78125 4.242189,-4.91797 v -7.64844 c 0,-3.69922 -1.21875,-4.92969 -4.851559,-4.92969 h -21.49219 v 22.41797 c 0,15.40625 5.75,21.55078 19.98047,21.55078 z m 0,0"
     id="path14" />
  <path
     fill-rule="nonzero"
     fill="#ff6400"
     fill-opacity="1"
     d="m 77.531251,167.47656 v -22.41797 h -4.55078 c -3.625,0 -4.84375,1.22657 -4.84375,4.92969 v 26.47266 h -2.1211 c -14.23046,0 -19.98046,-6.14453 -19.98046,-21.55078 V 64.984379 c 0,-15.40625 5.75,-21.55469 19.98046,-21.55469 h 40.273439 c 11.04297,0 16.80078,3.70312 18.82422,12.5625 h 12.67187 c 14.23047,0 19.6836,6.15234 19.6836,21.55859 v 89.925781 c 0,15.40625 -5.75,21.55078 -19.98438,21.55078 h -2.11328 v -26.47265 c 0,-3.70313 -1.21484,-4.92969 -4.85547,-4.92969 h -4.60547 c -0.66796,13.41406 -6.55468,18.83594 -19.92187,18.83594 H 103.875 v -18.82422 c -3.16016,0.13672 -4.246099,1.42969 -4.246099,4.91797 v 26.47265 h -2.11718 c -14.23047,0 -19.98047,-6.14453 -19.98047,-21.55078 m 30.054689,59.41407 -3.71094,-6.9961 h 8.77344 C 150.20312,219.89453 172,198.63672 172,162.91797 V 56.980469 C 172,37.871099 165.76562,22.906249 154.21484,13.113282 150.99609,12.75 147.64062,12.566407 144.14453,12.566407 H 90.851561 c -37.55859,0 -59.355467,21.257812 -59.355467,56.980472 V 175.48438 c 0,19.10546 6.238281,34.07421 17.785157,43.86328 3.21484,0.35937 6.57812,0.54687 10.07422,0.54687 h 8.78125 l 3.71093,6.9961 c 0.82422,2.00781 1.14844,2.95312 2.16407,3.95703 1.92968,0.39453 3.92187,0.71875 5.96875,0.97265 l 17.2539,0.63672 c 3.636719,0 10.351569,-1.87109 10.351569,-5.5664"
     id="path16" />
  <path
     fill-rule="nonzero"
     fill="#000000"
     fill-opacity="1"
     d="m 245.82031,174.46875 h 12.29688 c 9.61328,0 10.65234,10.76563 10.65234,15.39453 0,7.94531 -2.80078,16.4375 -10.65234,16.4375 h -12.29688 z m 12.29688,-2.97266 h -16.20704 v 37.77344 h 16.20704 c 13.61718,0 14.67968,-14.85547 14.67968,-19.40625 0,-5.52344 -1.42968,-18.36719 -14.67968,-18.36719"
     id="path18" />
  <path
     fill-rule="nonzero"
     fill="#000000"
     fill-opacity="1"
     d="m 297.6289,194.27734 h -15.54687 c 0.0781,-6.99218 2.31641,-9.84765 7.68359,-9.84765 5.57032,0 7.78516,2.76172 7.86328,9.84765 m -7.86328,-12.5625 c -8.07031,0 -11.67187,4.32422 -11.67187,14.01954 0,9.91015 3.46875,13.96875 11.96094,14.01953 3.23046,0 7.30859,-0.82422 10.5,-1.53907 l 0.14062,-0.0312 -0.0273,-0.14062 -0.45703,-2.375 -0.0274,-0.14844 -0.14844,0.0312 c -1.52343,0.35156 -6.74609,1.4961 -9.91406,1.4961 -5.61328,0 -7.94922,-2.91797 -8.03906,-10.0586 h 19.53516 v -2.24219 c 0,-8.89062 -3.76563,-13.03125 -11.85157,-13.03125"
     id="path20" />
  <path
     fill-rule="nonzero"
     fill="#000000"
     fill-opacity="1"
     d="m 325.16406,182.19922 h -0.10156 l -0.0352,0.0977 -8.08594,23.32421 h -0.5664 l -8.01953,-23.32031 -0.0352,-0.10156 h -4.00391 l 0.0703,0.19531 9.4414,26.77735 0.0352,0.0976 h 5.53516 l 0.0351,-0.0976 9.56641,-26.77344 0.0703,-0.19922 z m 0,0"
     id="path22" />
  <path
     fill-rule="nonzero"
     fill="#000000"
     fill-opacity="1"
     d="m 334.17969,182.20703 h -0.14844 v 27.0625 h 3.84765 v -27.0625 z m 0,0"
     id="path24" />
  <path
     fill-rule="nonzero"
     fill="#000000"
     fill-opacity="1"
     d="m 333.17969,171.74609 h -0.14844 v 3.91016 h 3.84765 v -3.91016 z m 0,0"
     id="path26" />
  <path
     fill-rule="nonzero"
     fill="#000000"
     fill-opacity="1"
     d="m 364.54687,205.97656 -0.008,-0.16797 -0.16406,0.0352 c -0.13672,0.0234 -0.34766,0.0703 -0.61719,0.12891 -1.49609,0.3125 -5.00781,1.04687 -6.86719,1.13281 -0.33203,0.0156 -0.64843,0.0195 -0.95312,0.0195 -6.48828,0 -7.57813,-3.50781 -7.57813,-11.37109 0,-4.53516 0.40625,-7.07032 1.41016,-8.75 1.10547,-1.84766 3.01172,-2.67188 6.17969,-2.67188 0.30078,0 0.61718,0.008 0.9414,0.0234 1.3086,0.0586 3.45703,0.39844 5.17969,0.67187 1.13672,0.17969 2.03906,0.32032 2.32422,0.32032 0.0195,0 0.043,0 0.0547,0 l 0.1289,-0.0156 0.004,-0.125 0.12109,-2.23047 0.004,-0.1289 -0.12891,-0.0234 c -0.0937,-0.0156 -0.27343,-0.0508 -0.52343,-0.0977 -1.35547,-0.25 -4.95704,-0.92187 -7.08204,-1.01172 -0.5,-0.0234 -0.98828,-0.0351 -1.44921,-0.0351 -9.33985,0 -11.11329,4.94531 -11.11329,14.07422 0,9.09765 1.78907,14.02734 11.20704,14.02734 0.42968,0 0.88671,-0.008 1.35546,-0.0312 2.24219,-0.0937 6.00782,-0.81641 7.24219,-1.05469 l 0.36719,-0.0703 0.12891,-0.0234 -0.008,-0.1289 z m 0,0"
     id="path28" />
  <path
     fill-rule="nonzero"
     fill="#000000"
     fill-opacity="1"
     d="m 388.68359,194.27734 h -15.54687 c 0.0781,-6.99218 2.3125,-9.84765 7.68359,-9.84765 5.57031,0 7.78125,2.76172 7.86328,9.84765 m -7.86328,-12.5625 c -8.07422,0 -11.67187,4.32422 -11.67187,14.01954 0,9.91015 3.46484,13.96875 11.96093,14.01953 3.64453,0 8.625,-1.11719 10.5,-1.53907 l 0.13672,-0.0312 -0.0273,-0.14062 -0.45313,-2.375 -0.0273,-0.14844 -0.14844,0.0312 c -1.52344,0.35156 -6.74609,1.4961 -9.91406,1.4961 -5.61719,0 -7.95313,-2.91797 -8.03906,-10.0586 h 19.53125 v -2.24219 c 0,-8.89062 -3.76172,-13.03125 -11.84766,-13.03125"
     id="path30" />
  <path
     fill-rule="nonzero"
     fill="#000000"
     fill-opacity="1"
     d="m 411.8125,197.625 c -0.98047,-0.8125 -3.91406,-2.89062 -6.67969,-4.73047 -2.38672,-1.62109 -3.18359,-2.53125 -3.18359,-4.71484 0,-0.21094 0.008,-0.4336 0.0195,-0.67188 0.13672,-2.08203 1.89062,-3.23437 4.93359,-3.24218 0.33594,-0.0117 0.65235,-0.0156 0.96094,-0.0156 1.91797,0 3.54687,0.19922 5.88281,0.5625 l 0.14063,0.0234 0.0273,-0.13672 0.47266,-2.31641 0.0312,-0.15234 -0.15235,-0.0234 c -2.90234,-0.42187 -4.55859,-0.54687 -7.375,-0.54687 -6.21093,0 -8.60156,3.05078 -8.76562,5.66406 -0.0156,0.25781 -0.0234,0.51953 -0.0234,0.77344 0,3.64062 1.89453,5.17187 4.78906,7.09375 2.21094,1.49218 5.1836,3.5625 6.28907,4.47656 0.98828,0.82031 1.48437,1.91016 1.47265,3.24219 -0.0117,3.44922 -2.16015,3.82422 -5.19531,3.97656 -0.28906,0.0195 -0.59375,0.0312 -0.93359,0.0312 -1.71485,0 -3.69922,-0.25 -6.34375,-0.65234 l -0.14063,-0.0195 -0.0273,0.13672 -0.46875,2.30469 -0.0312,0.15234 0.15625,0.0234 c 2.47656,0.33594 4.8789,0.64063 7.02734,0.64063 0.32031,0 0.63672,-0.004 0.94922,-0.0195 2.64844,-0.1211 8.85547,-0.40625 8.85547,-6.56641 0,-1.17578 -0.34766,-3.43359 -2.6875,-5.29297"
     id="path32" />
  <path
     fill-rule="nonzero"
     fill="#000000"
     fill-opacity="1"
     d="m 255.39844,71.582029 c -12.85157,0 -15.48438,-7.65234 -15.48438,-19.13672 0,-12.0039 2.58984,-19.4414 15.48438,-19.4414 5.14453,0 9.88281,0.76953 11.68359,1.10156 l 0.0625,0.0117 0.0117,0.0703 -0.28516,2.8125 -0.0781,-0.0156 c -4.40625,-0.75 -8.42578,-1.15625 -11.39063,-1.15625 -10.7539,0 -11.60937,7.19922 -11.60937,16.61328 0,10.8125 1.79297,16.30468 11.60937,16.30468 2.57813,0 6.57422,-0.40625 11.25391,-1.14453 l 0.21094,-0.0312 0.29687,2.82813 -0.1875,0.0312 c -2.60156,0.43359 -7.5625,1.15234 -11.57812,1.15234"
     id="path34" />
  <path
     fill-rule="nonzero"
     fill="#000000"
     fill-opacity="1"
     d="m 255.39844,32.929689 c -12.95704,0 -15.5586,7.46875 -15.5586,19.51562 0,11.53125 2.64844,19.21094 15.5586,19.21094 4.01953,0 8.98437,-0.72266 11.58984,-1.15234 l 0.25781,-0.043 -0.0156,-0.13672 -0.28125,-2.6875 -0.0195,-0.15234 -0.14844,0.0234 -0.14063,0.0234 c -4.67187,0.73438 -8.66406,1.14063 -11.23828,1.14063 -9.7539,0 -11.53515,-5.46485 -11.53515,-16.23047 0,-11.20703 1.72656,-16.53906 11.53515,-16.53906 2.96094,0 6.97656,0.40234 11.3086,1.14062 l 0.0703,0.0117 0.15234,0.0273 0.0195,-0.15625 0.27735,-2.73047 0.0156,-0.13671 -0.13672,-0.0234 c -1.8164,-0.33594 -6.5625,-1.10547 -11.71093,-1.10547 m 0,0.14844 c 5.73046,0 10.9375,0.96484 11.6875,1.10156 l -0.28125,2.73047 c -0.91797,-0.15625 -6.6875,-1.15625 -11.40235,-1.15625 -10.39062,0 -11.68359,6.35937 -11.68359,16.6875 0,10.36328 1.51953,16.375 11.68359,16.375 4.17969,0 10.57031,-1.03516 11.39844,-1.16407 l 0.28516,2.6875 c -0.72657,0.11719 -6.875,1.16797 -11.6875,1.16797 -12.75782,0 -15.41016,-7.3789 -15.41016,-19.0625 0,-11.45703 2.22266,-19.36718 15.41016,-19.36718"
     id="path36" />
  <path
     fill-rule="nonzero"
     fill="#000000"
     fill-opacity="1"
     d="m 290.39844,56.253909 c -0.0664,-7.19141 -2.29688,-10 -7.9375,-10 -5.44141,0 -7.69141,2.89843 -7.75782,10 z m -7.64454,15.32812 c -8.44531,-0.0508 -11.88671,-4.08984 -11.88671,-13.9414 0,-9.64844 3.57421,-13.94922 11.59375,-13.94922 8.03515,0 11.77734,4.11718 11.77734,12.95703 v 2.16797 h -19.53125 c 0.0703,7.25 2.42187,10.20703 8.10937,10.20703 3.17579,0 8.40235,-1.14453 9.92969,-1.4961 l 0.0742,-0.0156 0.48438,2.51953 -0.0703,0.0156 c -1.86718,0.41796 -6.83593,1.53515 -10.48047,1.53515"
     id="path38" />
  <path
     fill-rule="nonzero"
     fill="#000000"
     fill-opacity="1"
     d="m 274.77734,56.179689 c 0.082,-6.9961 2.3125,-9.85156 7.6875,-9.85156 5.56641,0 7.78125,2.76562 7.85938,9.85156 z m 7.6875,-12.5625 c -8.07422,0 -11.67187,4.32812 -11.67187,14.02344 0,9.90625 3.46484,13.96484 11.95703,14.01171 3.65625,0 8.6289,-1.11328 10.5,-1.53515 l 0.14062,-0.0312 -0.0273,-0.14063 -0.45703,-2.375 -0.0274,-0.14843 -0.14843,0.0312 c -1.52344,0.35156 -6.7461,1.49609 -9.91407,1.49609 -5.61328,0 -7.94921,-2.91797 -8.03515,-10.05859 h 19.53125 v -2.24219 c 0,-8.88672 -3.76563,-13.03125 -11.84766,-13.03125 m -7.83594,12.70703 h 15.84375 c -0.0508,-7.48438 -2.46093,-10.14062 -8.00781,-10.14062 -5.32031,0 -7.78125,2.70703 -7.83594,10.14062 m 7.83594,-12.55859 c 7.69922,0 11.69922,3.71875 11.69922,12.88281 v 2.09375 H 274.6328 c 0.0508,6.78906 2.01172,10.35547 8.18359,10.35547 2.96094,0 7.75391,-0.9961 9.94532,-1.5 l 0.45703,2.375 c -2.48828,0.55859 -7.01953,1.53515 -10.46485,1.53515 -9.375,-0.0547 -11.8164,-5.30468 -11.8164,-13.86718 0,-10.50391 4.38281,-13.875 11.52734,-13.875"
     id="path40" />
  <path
     fill-rule="nonzero"
     fill="#000000"
     fill-opacity="1"
     d="m 300.39844,71.101559 0.004,-25.02343 c 4.42578,-1.74219 7.57813,-2.39453 11.29688,-2.39453 8.30468,0 11.6914,3.87499 11.6914,13.37499 v 14.04297 h -3.82031 v -14.03906 c 0,-7.88281 -2.13672,-10.8125 -7.875,-10.8125 -2.91016,0 -5.76562,0.71875 -7.64453,1.32031 l 0.0508,23.53125 z m 0,0"
     id="path42" />
  <path
     fill-rule="nonzero"
     fill="#000000"
     fill-opacity="1"
     d="m 311.69922,43.613279 c -3.73047,0 -6.89063,0.65235 -11.27735,2.32813 l -0.0937,0.0352 v 25.19532 h 3.84766 v -23.5625 c 1.875,-0.59375 4.67187,-1.28516 7.51953,-1.28516 5.6875,0 7.80078,2.91016 7.80078,10.73828 v 14.10938 h 3.96875 v -14.11329 c 0,-9.55078 -3.41015,-13.44531 -11.76562,-13.44531 m 0,0.14453 c 8.53906,0 11.61718,4.23438 11.61718,13.30078 v 13.96875 h -3.67187 v -13.96484 c 0,-7.68359 -2.00391,-10.88672 -7.94922,-10.88672 -3.01562,0 -5.89844,0.76172 -7.66797,1.32422 v 23.52734 h -3.55469 v -24.94921 c 4.15235,-1.58594 7.35157,-2.32032 11.22657,-2.32032"
     id="path44" />
  <path
     fill-rule="nonzero"
     fill="#000000"
     fill-opacity="1"
     d="m 338.47265,71.582029 c -5.10546,0 -5.92968,-2.66015 -5.92968,-9.02344 v -15.76562 h -5.59766 v -2.5625 h 5.59766 v -6.90625 h 3.69531 v 6.90625 h 6.1875 v 2.5625 h -6.1875 v 15.76562 c 0,5.39063 0.44141,6.48438 2.625,6.52344 0.0937,0.008 0.19141,0.0117 0.29687,0.0117 0.8086,0 1.96094,-0.19531 3.15625,-0.53125 l 0.11329,-0.0312 -0.44532,2.5625 c -1.48828,0.34766 -2.61328,0.48828 -3.51172,0.48828"
     id="path46" />
  <path
     fill-rule="nonzero"
     fill="#000000"
     fill-opacity="1"
     d="m 336.3125,37.249999 h -3.84375 v 6.90625 h -5.59766 v 2.71094 h 5.59766 v 15.69531 c 0,6.41016 0.83203,9.08984 6.0039,9.08984 0.90235,0 2.03516,-0.14062 3.46875,-0.42968 l 0.0977,-0.0195 0.0156,-0.0977 0.42578,-2.44531 0.0391,-0.23047 -0.22266,0.0625 c -1.1914,0.33594 -2.33593,0.52734 -3.13672,0.52734 -0.10546,0 -0.19921,-0.004 -0.28515,-0.008 -2.13281,-0.0391 -2.5625,-1.125 -2.5625,-6.44922 v -15.69531 h 6.1875 v -2.71094 h -6.1875 z m -0.14453,0.14844 v 6.90625 h 6.1875 v 2.41797 h -6.1875 v 15.83984 c 0,5.30078 0.42578,6.55469 2.69531,6.59375 0.0898,0.008 0.1875,0.008 0.29687,0.008 0.72657,0 1.83204,-0.15234 3.17579,-0.52734 l -0.42579,2.44141 c -1.58593,0.32031 -2.66406,0.42968 -3.4375,0.42968 -4.9414,0 -5.85546,-2.36328 -5.85546,-8.94531 v -15.83984 h -5.60157 v -2.41797 h 5.60157 v -6.90625 h 3.55078"
     id="path48" />
  <path
     fill-rule="nonzero"
     fill="#000000"
     fill-opacity="1"
     d="m 365.78125,56.253909 c -0.0625,-7.19141 -2.29297,-10 -7.9336,-10 -5.4414,0 -7.6914,2.89843 -7.75781,10 z m -7.64453,15.32812 c -8.44532,-0.0508 -11.88672,-4.08984 -11.88672,-13.9414 0,-9.64844 3.57422,-13.94922 11.59765,-13.94922 8.03516,0 11.77735,4.11718 11.77735,12.95703 v 2.16797 h -19.53516 c 0.0742,7.24609 2.42578,10.20703 8.10938,10.20703 3.17968,0 8.40625,-1.14453 9.93359,-1.4961 l 0.0742,-0.0156 0.48047,2.51953 -0.0664,0.0156 c -1.87109,0.41796 -6.83594,1.53515 -10.48437,1.53515"
     id="path50" />
  <path
     fill-rule="nonzero"
     fill="#000000"
     fill-opacity="1"
     d="m 350.16406,56.179689 c 0.0781,-6.9961 2.3125,-9.85156 7.68359,-9.85156 5.57032,0 7.78125,2.76562 7.85938,9.85156 z m 7.68359,-12.5625 c -8.07421,0 -11.67187,4.32812 -11.67187,14.02344 0,9.90625 3.46484,13.96484 11.96094,14.01171 3.65625,0 8.6289,-1.11328 10.5,-1.53515 l 0.13672,-0.0312 -0.0274,-0.14063 -0.45312,-2.375 -0.0312,-0.14843 -0.14844,0.0312 c -1.52344,0.35156 -6.74219,1.49609 -9.91406,1.49609 -5.60938,0 -7.94532,-2.91797 -8.03516,-10.05859 h 19.53125 v -2.24219 c 0,-8.88672 -3.76562,-13.03125 -11.84766,-13.03125 m -7.83203,12.70703 h 15.83985 c -0.0508,-7.48438 -2.46094,-10.14062 -8.00782,-10.14062 -5.32031,0 -7.78125,2.70703 -7.83203,10.14062 m 7.83203,-12.55859 c 7.70313,0 11.70313,3.71875 11.70313,12.88281 v 2.09375 h -19.53516 c 0.0547,6.78906 2.01563,10.35547 8.1836,10.35547 2.96093,0 7.75781,-0.9961 9.94531,-1.5 l 0.45703,2.375 c -2.48437,0.55859 -7.01562,1.53515 -10.46484,1.53515 -9.375,-0.0547 -11.81641,-5.30468 -11.81641,-13.86718 0,-10.50391 4.38672,-13.875 11.52734,-13.875"
     id="path52" />
  <path
     fill-rule="nonzero"
     fill="#000000"
     fill-opacity="1"
     d="m 375.78515,71.101559 v -25.01953 c 4.42188,-1.74218 7.57422,-2.39453 11.29297,-2.39453 0.82032,0 1.50782,0.0117 2.88282,0.1836 l 0.0781,0.0117 -0.45703,2.5625 -0.0703,-0.0117 c -1.14063,-0.15235 -1.75782,-0.1836 -2.4336,-0.1836 -2.30859,0 -4.94922,0.45703 -7.64453,1.32031 l 0.0508,23.53125 z m 0,0"
     id="path54" />
  <path
     fill-rule="nonzero"
     fill="#000000"
     fill-opacity="1"
     d="m 387.07812,43.613279 c -3.73047,0 -6.89062,0.65235 -11.27343,2.32813 l -0.0937,0.0391 v 25.19141 h 3.84765 v -23.5625 c 2.65235,-0.83985 5.25,-1.28516 7.51953,-1.28516 0.67578,0 1.28516,0.0312 2.42188,0.18359 l 0.14062,0.0195 0.0234,-0.14063 0.43359,-2.41797 0.0274,-0.14844 -0.15235,-0.0195 c -1.38281,-0.17578 -2.07421,-0.1875 -2.89453,-0.1875 m 0,0.14844 c 0.875,0 1.54688,0.0195 2.875,0.18359 l -0.43359,2.41797 c -1.08984,-0.14843 -1.71484,-0.1875 -2.44141,-0.1875 -3.01953,0 -5.90234,0.76172 -7.66797,1.32422 v 23.52734 h -3.55078 v -24.94531 c 4.14453,-1.58593 7.34375,-2.32031 11.21875,-2.32031"
     id="path56" />
  <path
     fill-rule="nonzero"
     fill="#000000"
     fill-opacity="1"
     d="m 416.3789,71.093749 v -24.39062 h -5.59375 v -2.5625 h 5.59375 v -1.76953 c 0,-7.41407 2.5586,-8.86329 6.97657,-8.86329 1.14453,0 3.15625,0.25391 4.85156,0.81641 l 0.0625,0.0195 -0.49219,2.32813 -0.0742,-0.0195 c -1.54297,-0.45313 -3.10937,-0.65235 -3.98047,-0.65235 -2.55859,0 -3.64062,0.58985 -3.64062,6.26172 v 1.87891 h 6.18359 v 2.5625 h -6.18359 v 24.39062 z m 0,0"
     id="path58" />
  <path
     fill-rule="nonzero"
     fill="#000000"
     fill-opacity="1"
     d="m 423.35156,33.433599 c -4.46484,0 -7.04687,1.46093 -7.04687,8.9375 v 1.69531 h -5.59375 v 2.71094 h 5.59375 v 24.39062 h 3.85546 v -24.39062 h 6.17579 v -2.71094 h -6.17579 v -1.80469 c 0,-5.60156 1.0586,-6.1875 3.47657,-6.1875 l 0.082,-0.004 c 0.86719,0 2.42578,0.20313 3.96484,0.65235 l 0.15235,0.043 0.0312,-0.15625 0.46093,-2.1836 0.0234,-0.1289 -0.125,-0.043 c -1.69922,-0.5625 -3.71875,-0.82031 -4.875,-0.82031 m 0,0.14843 c 1.23828,0 3.23828,0.28516 4.83203,0.8125 l -0.46094,2.1836 c -1.55468,-0.45313 -3.12109,-0.65235 -4.0039,-0.65235 -0.0274,0 -0.0547,0 -0.082,0 -2.51563,0 -3.625,0.63672 -3.625,6.33594 v 1.95313 h 6.17968 v 2.41406 h -6.17968 v 24.39453 h -3.5586 v -24.39453 h -5.59375 v -2.41406 h 5.59375 v -1.84375 c 0,-7.59766 2.76172,-8.78907 6.89844,-8.78907"
     id="path60" />
  <path
     fill-rule="nonzero"
     fill="#000000"
     fill-opacity="1"
     d="m 441.71484,46.257809 c -6.46094,0 -8.53515,2.625 -8.53515,10.8086 0,8.43359 1.18359,11.95703 8.53906,11.95703 7.10156,0 8.30469,-3.65625 8.30469,-11.85156 0,-7.44532 -2.64063,-10.91407 -8.3086,-10.91407 m 0.004,25.32422 c -9.27735,0 -12.25391,-3.52734 -12.25391,-14.51562 0,-9.5 3.55078,-13.375 12.25391,-13.375 8.08594,0 12.01562,4.41015 12.01562,13.48047 0,9.125 -1.96875,14.41015 -12.01562,14.41015"
     id="path62" />
  <path
     fill-rule="nonzero"
     fill="#000000"
     fill-opacity="1"
     d="m 441.71875,68.949219 c -7.1875,0 -8.46875,-3.11328 -8.46875,-11.88281 0,-8.125 2.05859,-10.73438 8.46484,-10.73438 5.61719,0 8.23047,3.44141 8.23047,10.83985 0,8.14453 -1.18359,11.77734 -8.23047,11.77734 z m 0,-25.32812 c -8.75781,0 -12.32813,3.89453 -12.32813,13.44531 0,11.04297 2.9961,14.58984 12.32813,14.58984 10.10937,0 12.08984,-5.3125 12.08984,-14.48437 0,-9.1211 -3.95703,-13.55078 -12.08984,-13.55078 m 0,25.47656 h -0.004 c 7.19531,0 8.37891,-3.71094 8.37891,-11.92578 0,-8.13672 -3.13672,-10.98828 -8.37891,-10.98828 -6.23437,0 -8.60937,2.31249 -8.60937,10.88281 0,8.85547 1.39843,12.03125 8.60937,12.03125 m 0.004,-25.33203 c 7.58594,0 11.9414,3.76171 11.9414,13.40625 0,9.83203 -2.43359,14.33593 -11.9414,14.33593 -9.51953,0 -12.17969,-3.86328 -12.17969,-14.4414 0,-9.79297 3.8125,-13.30078 12.17969,-13.30078"
     id="path64" />
  <path
     fill-rule="nonzero"
     fill="#000000"
     fill-opacity="1"
     d="m 460.39453,71.101559 v -25.01953 c 4.42187,-1.74218 7.57422,-2.39453 11.29297,-2.39453 0.8164,0 1.50781,0.0117 2.88672,0.1836 l 0.0742,0.0117 -0.45704,2.5625 -0.0703,-0.0117 c -1.14062,-0.15235 -1.7539,-0.1836 -2.43359,-0.1836 -2.30469,0 -4.94922,0.45703 -7.64844,1.32031 l 0.0508,23.53125 z m 0,0"
     id="path66" />
  <path
     fill-rule="nonzero"
     fill="#000000"
     fill-opacity="1"
     d="m 471.6875,43.613279 c -3.73047,0 -6.88672,0.65235 -11.27344,2.32813 l -0.0937,0.0391 v 25.19141 h 3.84375 v -23.5625 c 2.65625,-0.83985 5.25391,-1.28516 7.52344,-1.28516 0.67578,0 1.28515,0.0312 2.42187,0.18359 l 0.14063,0.0195 0.0234,-0.14063 0.43359,-2.41797 0.0273,-0.14844 -0.15234,-0.0195 c -1.38281,-0.17578 -2.07422,-0.1875 -2.89453,-0.1875 m 0,0.14844 c 0.8789,0 1.54687,0.0195 2.875,0.18359 l -0.4336,2.41797 c -1.08984,-0.14843 -1.71484,-0.1875 -2.4414,-0.1875 -3.01953,0 -5.90235,0.76172 -7.66797,1.32422 v 23.52734 h -3.55078 v -24.94531 c 4.14844,-1.58593 7.34375,-2.32031 11.21875,-2.32031"
     id="path68" />
  <path
     fill-rule="nonzero"
     fill="#000000"
     fill-opacity="1"
     d="m 268.40234,118.80859 c 0,11.52344 -1.83594,17.01172 -12.28125,17.01172 -10.78906,0 -12.60937,-5.29297 -12.60937,-17.15625 0,-11.52734 3.30078,-15.61328 12.60937,-15.61328 8.26563,0 12.28125,5.15235 12.28125,15.75781 m 3.89844,0 c 0,-12.7539 -5.14063,-18.69531 -16.17969,-18.69531 -11.8789,0 -16.50781,5.19922 -16.50781,18.55078 0,7.92188 1.00391,12.58203 3.34766,15.57813 2.45312,3.13281 6.51171,4.52734 13.16015,4.52734 2.08594,0 3.83594,-0.16406 5.34375,-0.49609 l 4.625,7.39062 0.0703,0.10547 0.11719,-0.0508 3.1875,-1.39062 0.15625,-0.0703 -0.0937,-0.14453 -4.40234,-6.97265 c 5.94922,-2.76563 7.17578,-9.33204 7.17578,-18.33204"
     id="path70" />
  <path
     fill-rule="nonzero"
     fill="#000000"
     fill-opacity="1"
     d="m 296.91406,111.32031 h -0.14453 v 23.57813 c -1.28516,0.41015 -4.28906,1.27734 -6.67578,1.27734 -5.6875,0 -7.79688,-2.90625 -7.79688,-10.73437 v -14.1211 h -3.97265 v 14.1211 c 0,9.54297 3.41015,13.4375 11.76953,13.4375 3.02734,0 6.24609,-0.71875 10.42969,-2.32032 l 0.0937,-0.0352 v -25.20313 z m 0,0"
     id="path72" />
  <path
     fill-rule="nonzero"
     fill="#000000"
     fill-opacity="1"
     d="M 324.14844,124.61719 V 134.75 c -3.29297,0.89453 -6.40235,1.36719 -9.01172,1.36719 -2.82813,-0.0352 -4.51563,-2.0586 -4.51563,-5.41797 0,-3.37109 1.66016,-5.02734 5.375,-5.37109 z m -5.64454,-13.82813 c -2.96875,0 -6.38671,0.34766 -9.63281,0.70313 l -0.16015,0.0156 0.0312,0.15625 0.46875,2.46485 0.0273,0.13281 0.13281,-0.0156 c 3.01563,-0.3164 6.45703,-0.64453 9.13281,-0.64453 3.90235,0 5.64454,1.78125 5.64454,5.76563 v 2.5 l -8.55469,0.80469 c -6.01172,0.53125 -8.9336,3.15625 -8.9336,8.02734 0,5.16406 3.05079,8.125 8.36719,8.125 5.27735,0 9.46875,-1.14063 12.8711,-2.25391 l 0.10156,-0.0312 v -17.09765 c 0,-5.74219 -3.19531,-8.65235 -9.4961,-8.65235"
     id="path74" />
  <path
     fill-rule="nonzero"
     fill="#000000"
     fill-opacity="1"
     d="m 346.42969,110.78125 c -3.72657,0 -6.88672,0.65234 -11.27344,2.33203 l -0.0937,0.0352 v 25.19531 h 3.84765 v -23.56641 c 1.875,-0.59375 4.66797,-1.28515 7.51954,-1.28515 5.6875,0 7.80078,2.91015 7.80078,10.73828 v 14.10937 h 3.96875 v -14.10937 c 0,-9.55469 -3.41016,-13.44922 -11.76953,-13.44922"
     id="path76" />
  <path
     fill-rule="nonzero"
     fill="#000000"
     fill-opacity="1"
     d="m 373.89453,136.1875 c -0.10547,0 -0.19922,-0.004 -0.28516,-0.008 -2.13281,-0.0352 -2.5625,-1.1211 -2.5625,-6.44922 v -15.69141 h 6.1875 v -2.71484 h -6.1875 v -6.90234 h -3.84375 v 6.90234 h -5.60156 v 2.71484 h 5.60156 v 15.69141 c 0,6.41406 0.83203,9.09375 6.00391,9.09375 0.89844,0 2.03516,-0.14063 3.46484,-0.42969 l 0.10157,-0.0234 0.0156,-0.0977 0.42578,-2.44531 0.0391,-0.23047 -0.22265,0.0625 c -1.19531,0.33593 -2.33594,0.52734 -3.13672,0.52734"
     id="path78" />
  <path
     fill-rule="nonzero"
     fill="#000000"
     fill-opacity="1"
     d="m 400.03125,111.32031 h -0.14453 v 23.57813 c -1.28516,0.41015 -4.28907,1.27734 -6.67578,1.27734 -5.6875,0 -7.79688,-2.90625 -7.79688,-10.73437 v -14.1211 h -3.97266 v 14.1211 c 0,9.54297 3.41016,13.4375 11.76954,13.4375 3.02734,0 6.24609,-0.71875 10.42968,-2.32032 l 0.0937,-0.0352 v -25.20313 z m 0,0"
     id="path80" />
  <path
     fill-rule="nonzero"
     fill="#000000"
     fill-opacity="1"
     d="m 440.50781,110.76563 c -3.75,0 -6.69141,0.59765 -10.81641,2.19921 -1.64062,-1.48046 -4.10546,-2.19921 -7.52343,-2.19921 -3.80469,0 -7.17578,0.69531 -11.27344,2.32031 l -0.0937,0.0352 v 25.22266 h 3.84766 v -23.58208 c 2.65625,-0.84375 5.2539,-1.28516 7.51953,-1.28516 5.9375,0 6.9414,3.3125 6.9414,10.73828 v 14.12891 h 3.96485 v -14.13281 c 0,-4.21875 -0.45703,-7.00781 -1.48438,-9.00391 3.50391,-1.25781 5.9336,-1.73047 8.91797,-1.73047 5.9375,0 6.9375,3.3125 6.9375,10.73828 v 14.12891 h 3.96875 v -14.12891 c 0,-8.51953 -1.78516,-13.44921 -10.90625,-13.44921"
     id="path82" />
</svg>
